#!OML:ASF F:\VICON\USERDATA\INSTALL\rory3\rory3.ASF
:FULLY-SPECIFIED
:DEGREES
495
root -7.19385 18.2206 -15.6397 17.4847 46.8916 6.09041
lowerback -7.11726 -0.332815 -1.45939
upperback -2.06488 -0.275692 -1.53852
thorax 1.85889 -0.128481 -0.787464
lowerneck -17.92 -2.90668 -0.229149
upperneck 17.6636 -3.85468 -0.240768
head 8.45125 -1.84755 -0.518786
rclavicle 1.45815e-013 5.31749e-015
rhumerus -32.125 17.6931 -96.5613
rradius 34.6174
rwrist 1.68193
rhand -18.5901 9.16705
rfingers 7.12502
rthumb 7.7008 -20.6727
lclavicle 1.45815e-013 5.31749e-015
lhumerus -34.7346 -12.8517 86.2393
lradius 36.8998
lwrist 15.8381
lhand -11.3556 28.0886
lfingers 7.12502
lthumb 14.6779 57.5491
rfemur -16.1822 -2.61307 18.962
rtibia 26.4045
rfoot -24.9313 1.51417
rtoes 4.03179
lfemur -28.8058 -6.1287 -18.3703
ltibia 28.6265
lfoot -12.9024 -30.1669
ltoes -22.2161
496
root -7.22919 18.2196 -15.6431 17.9521 46.9718 6.47145
lowerback -7.10806 -0.336263 -1.70195
upperback -2.02668 -0.26159 -1.56897
thorax 1.89407 -0.121979 -0.681589
lowerneck -17.9756 -2.97992 -0.323493
upperneck 17.3578 -3.95701 -0.106087
head 8.36261 -1.89069 -0.468374
rclavicle 2.04438e-014 -5.06901e-015
rhumerus -32.0137 17.5084 -96.4527
rradius 34.5145
rwrist 1.87678
rhand -18.5964 8.94692
rfingers 7.12502
rthumb 7.69475 -20.8931
lclavicle 2.04438e-014 -5.06901e-015
lhumerus -34.8572 -12.6589 86.2414
lradius 36.3142
lwrist 15.3462
lhand -11.2919 27.7015
lfingers 7.12502
lthumb 14.7393 57.1575
rfemur -16.5254 -2.51984 18.7626
rtibia 26.5072
rfoot -24.9754 1.55917
rtoes 4.72747
lfemur -29.216 -6.47248 -18.4611
ltibia 28.8242
lfoot -13.2346 -29.4927
ltoes -22.9763
497
root -7.26659 18.2175 -15.6465 18.251 47.0802 6.70466
lowerback -7.02004 -0.327934 -1.79697
upperback -2.01676 -0.245142 -1.60754
thorax 1.85557 -0.113735 -0.666091
lowerneck -17.8736 -3.00917 -0.338687
upperneck 17.0179 -4.00458 -0.0426681
head 8.23185 -1.91103 -0.444896
rclavicle -5.60635e-014 7.90169e-015
rhumerus -32.0705 17.3723 -96.4832
rradius 34.5587
rwrist 1.79335
rhand -18.645 8.91591
rfingers 7.12502
rthumb 7.6478 -20.9258
lclavicle -5.60635e-014 7.90169e-015
lhumerus -35.1131 -12.5609 86.2453
lradius 35.7119
lwrist 14.7779
lhand -11.398 27.0452
lfingers 7.12502
lthumb 14.6371 56.5086
rfemur -16.8315 -2.40928 18.6929
rtibia 26.6691
rfoot -25.0662 1.48677
rtoes 4.86334
lfemur -29.5342 -6.76022 -18.4708
ltibia 29.0407
lfoot -14.4022 -28.2657
ltoes -24.282
498
root -7.30296 18.2155 -15.6519 18.3725 47.181 6.6923
lowerback -6.9303 -0.320466 -1.75123
upperback -1.99042 -0.242184 -1.56813
thorax 1.83281 -0.112494 -0.650476
lowerneck -17.8287 -3.02952 -0.342958
upperneck 16.6761 -4.02842 -0.0480698
head 8.10914 -1.9266 -0.4442
rclavicle 1.22004e-013 -9.93923e-015
rhumerus -32.0771 17.3435 -96.4674
rradius 34.6323
rwrist 1.67096
rhand -18.7616 8.64104
rfingers 7.12502
rthumb 7.53525 -21.2047
lclavicle 1.22004e-013 -9.93923e-015
lhumerus -35.3121 -12.2838 86.2171
lradius 35.234
lwrist 14.3672
lhand -11.3009 27.0648
lfingers 7.12502
lthumb 14.7306 56.5214
rfemur -17.1969 -2.51315 18.8299
rtibia 26.8403
rfoot -25.0194 1.45555
rtoes 4.33087
lfemur -29.8835 -6.91643 -18.3171
ltibia 29.3436
lfoot -15.5156 -26.885
ltoes -25.704
499
root -7.33627 18.211 -15.6563 18.4158 47.2574 6.55648
lowerback -6.88068 -0.321922 -1.6033
upperback -1.93426 -0.257171 -1.51039
thorax 1.86275 -0.120562 -0.675205
lowerneck -17.9488 -3.0179 -0.287942
upperneck 16.4155 -4.02426 -0.0556983
head 8.04136 -1.92409 -0.454196
rclavicle -9.94545e-014 1.43125e-014
rhumerus -31.9244 17.2462 -96.423
rradius 34.5918
rwrist 1.66833
rhand -18.7563 8.49323
rfingers 7.12502
rthumb 7.54043 -21.3524
lclavicle -9.94545e-014 1.43125e-014
lhumerus -35.5386 -12.0208 86.1755
lradius 35.0489
lwrist 14.0543
lhand -11.1178 27.9444
lfingers 7.12502
lthumb 14.907 57.388
rfemur -17.6061 -2.89213 19.0776
rtibia 26.9663
rfoot -24.8286 1.59022
rtoes 3.22266
lfemur -30.2745 -7.0189 -18.072
ltibia 29.7841
lfoot -16.3271 -25.2617
ltoes -26.7805
500
root -7.37136 18.2031 -15.6612 18.3512 47.3884 6.41725
lowerback -6.65431 -0.335315 -1.46275
upperback -1.90044 -0.292954 -1.43985
thorax 1.77138 -0.138562 -0.683113
lowerneck -17.9409 -3.0116 -0.304165
upperneck 16.127 -4.02521 0.0225005
head 7.94568 -1.92025 -0.422301
rclavicle -3.95333e-014 -2.90226e-014
rhumerus -31.8474 17.1304 -96.3759
rradius 34.5405
rwrist 1.74716
rhand -18.7058 8.57926
rfingers 7.12502
rthumb 7.58913 -21.2646
lclavicle -3.95333e-014 -2.90226e-014
lhumerus -35.8866 -11.7094 86.1776
lradius 34.8612
lwrist 13.597
lhand -10.9848 28.4973
lfingers 7.12502
lthumb 15.0351 57.9314
rfemur -17.839 -3.23021 19.3218
rtibia 27.062
rfoot -24.7607 1.82644
rtoes 2.7072
lfemur -30.5983 -7.10733 -17.8228
ltibia 30.3133
lfoot -16.8061 -23.5053
ltoes -25.9213
501
root -7.40658 18.1937 -15.6628 18.2459 47.5675 6.19341
lowerback -6.47066 -0.380392 -1.31758
upperback -1.89414 -0.370768 -1.31968
thorax 1.67552 -0.177443 -0.645852
lowerneck -17.8547 -3.00231 -0.373282
upperneck 15.9038 -4.01256 0.123156
head 7.86011 -1.91057 -0.372358
rclavicle -9.00743e-015 -1.51076e-014
rhumerus -31.8759 17.2633 -96.4151
rradius 34.578
rwrist 1.47504
rhand -18.6124 9.01619
rfingers 7.12502
rthumb 7.6793 -20.8244
lclavicle -9.00743e-015 -1.51076e-014
lhumerus -36.3078 -11.3508 86.21
lradius 34.6667
lwrist 13.1381
lhand -10.7436 28.8603
lfingers 7.12502
lthumb 15.2675 58.2768
rfemur -18.0155 -3.36973 19.603
rtibia 27.147
rfoot -24.8587 2.22191
rtoes 3.42905
lfemur -30.9549 -7.05321 -17.5508
ltibia 30.8663
lfoot -17.4435 -21.5905
ltoes -24.7202
502
root -7.43328 18.1874 -15.662 18.3892 47.6853 6.1354
lowerback -6.51201 -0.433842 -1.25004
upperback -1.88464 -0.447213 -1.24624
thorax 1.70826 -0.21579 -0.61457
lowerneck -17.8806 -2.98348 -0.329016
upperneck 15.7399 -3.98971 0.0841145
head 7.80817 -1.90241 -0.388325
rclavicle 5.71257e-014 4.37326e-015
rhumerus -31.8801 17.3104 -96.4393
rradius 34.6329
rwrist 1.24872
rhand -18.5172 9.38382
rfingers 7.12502
rthumb 7.77115 -20.4534
lclavicle 5.71257e-014 4.37326e-015
lhumerus -36.6643 -11.0066 86.2431
lradius 34.3737
lwrist 12.7548
lhand -10.6369 29.2105
lfingers 7.12502
lthumb 15.3703 58.6192
rfemur -18.297 -3.66575 19.7302
rtibia 27.2315
rfoot -24.905 2.90165
rtoes 4.13133
lfemur -31.3863 -6.79103 -17.4893
ltibia 31.3979
lfoot -18.1799 -19.6155
ltoes -24.8108
